<mxfile host="app.diagrams.net" modified="2023-07-25T12:51:29.482Z" agent="Mozilla/5.0 (Windows NT 10.0; Win64; x64) AppleWebKit/537.36 (KHTML, like Gecko) Chrome/114.0.0.0 Safari/537.36" etag="kjCpIsW2iqtn5zQHYnVG" version="21.6.5" type="device">
  <diagram name="Página-1" id="lkzaG0tAhFghrlQ-2UdR">
    <mxGraphModel dx="1050" dy="581" grid="1" gridSize="10" guides="1" tooltips="1" connect="1" arrows="1" fold="1" page="1" pageScale="1" pageWidth="827" pageHeight="1169" math="0" shadow="0">
      <root>
        <mxCell id="0" />
        <mxCell id="1" parent="0" />
        <mxCell id="FzBHjBmkNi7TMJPtjKPj-1" value="&lt;div style=&quot;font-size: 13px;&quot;&gt;&lt;font style=&quot;font-size: 13px;&quot;&gt;﻿A empresa MicroManu possui uma grande quantidade de clientes que leva seus equipamentos&amp;nbsp;&lt;/font&gt;&lt;/div&gt;&lt;div style=&quot;font-size: 13px;&quot;&gt;&lt;font style=&quot;font-size: 13px;&quot;&gt;como computadores, celulares, video games e até tvs para que seus colaboradores realizem o conserto.&lt;/font&gt;&lt;/div&gt;&lt;div style=&quot;font-size: 13px;&quot;&gt;&lt;font style=&quot;font-size: 13px;&quot;&gt;E eles querem que você desenvolva a base para armazenar todos os dados de seus clientes e seus respectivos consertos.&lt;/font&gt;&lt;/div&gt;&lt;div style=&quot;font-size: 13px;&quot;&gt;&lt;font style=&quot;font-size: 13px;&quot;&gt;Para isto, desenvolva a modelagem para atender a demanda acima. Levando em conta o exemplo abaixo:&lt;/font&gt;&lt;/div&gt;&lt;div style=&quot;font-size: 13px;&quot;&gt;&lt;font style=&quot;font-size: 13px;&quot;&gt;O cliente A levou seu computador na MicroManu, o Erik e o Claudio realizaram a manutenção deste item.&lt;/font&gt;&lt;/div&gt;&lt;div style=&quot;font-size: 13px;&quot;&gt;&lt;font style=&quot;font-size: 13px;&quot;&gt;O cliente B levou sua tv na MicroManu e o Daniel realizou a limpeza de todas as peças.&lt;/font&gt;&lt;/div&gt;&lt;div style=&quot;font-size: 13px;&quot;&gt;&lt;font style=&quot;font-size: 13px;&quot;&gt;&lt;br&gt;&lt;/font&gt;&lt;/div&gt;&lt;div style=&quot;font-size: 13px;&quot;&gt;&lt;font style=&quot;font-size: 13px;&quot;&gt;O cliente pode verificar seus consertos no site da MicroManu.&lt;/font&gt;&lt;/div&gt;&lt;div style=&quot;font-size: 13px;&quot;&gt;&lt;font style=&quot;font-size: 13px;&quot;&gt;O colaborador pode encerrar o conserto.&lt;/font&gt;&lt;/div&gt;" style="text;html=1;align=left;verticalAlign=middle;resizable=0;points=[];autosize=1;strokeColor=none;fillColor=none;" vertex="1" parent="1">
          <mxGeometry x="70" width="730" height="150" as="geometry" />
        </mxCell>
        <mxCell id="FzBHjBmkNi7TMJPtjKPj-2" value="&lt;font style=&quot;font-size: 13px;&quot;&gt;Cliente&lt;/font&gt;" style="swimlane;fontStyle=0;childLayout=stackLayout;horizontal=1;startSize=30;horizontalStack=0;resizeParent=1;resizeParentMax=0;resizeLast=0;collapsible=1;marginBottom=0;whiteSpace=wrap;html=1;" vertex="1" parent="1">
          <mxGeometry x="50" y="160" width="140" height="120" as="geometry" />
        </mxCell>
        <mxCell id="FzBHjBmkNi7TMJPtjKPj-3" value="- Email" style="text;strokeColor=none;fillColor=none;align=left;verticalAlign=middle;spacingLeft=4;spacingRight=4;overflow=hidden;points=[[0,0.5],[1,0.5]];portConstraint=eastwest;rotatable=0;whiteSpace=wrap;html=1;" vertex="1" parent="FzBHjBmkNi7TMJPtjKPj-2">
          <mxGeometry y="30" width="140" height="30" as="geometry" />
        </mxCell>
        <mxCell id="FzBHjBmkNi7TMJPtjKPj-4" value="&lt;font style=&quot;font-size: 13px;&quot;&gt;- Senha&lt;/font&gt;" style="text;strokeColor=none;fillColor=none;align=left;verticalAlign=middle;spacingLeft=4;spacingRight=4;overflow=hidden;points=[[0,0.5],[1,0.5]];portConstraint=eastwest;rotatable=0;whiteSpace=wrap;html=1;" vertex="1" parent="FzBHjBmkNi7TMJPtjKPj-2">
          <mxGeometry y="60" width="140" height="30" as="geometry" />
        </mxCell>
        <mxCell id="FzBHjBmkNi7TMJPtjKPj-34" value="- Nome" style="text;strokeColor=none;fillColor=none;align=left;verticalAlign=middle;spacingLeft=4;spacingRight=4;overflow=hidden;points=[[0,0.5],[1,0.5]];portConstraint=eastwest;rotatable=0;whiteSpace=wrap;html=1;" vertex="1" parent="FzBHjBmkNi7TMJPtjKPj-2">
          <mxGeometry y="90" width="140" height="30" as="geometry" />
        </mxCell>
        <mxCell id="FzBHjBmkNi7TMJPtjKPj-14" value="Empresa" style="swimlane;fontStyle=0;childLayout=stackLayout;horizontal=1;startSize=30;horizontalStack=0;resizeParent=1;resizeParentMax=0;resizeLast=0;collapsible=1;marginBottom=0;whiteSpace=wrap;html=1;" vertex="1" parent="1">
          <mxGeometry x="330" y="172.5" width="140" height="60" as="geometry" />
        </mxCell>
        <mxCell id="FzBHjBmkNi7TMJPtjKPj-15" value="- Endereço" style="text;strokeColor=none;fillColor=none;align=left;verticalAlign=middle;spacingLeft=4;spacingRight=4;overflow=hidden;points=[[0,0.5],[1,0.5]];portConstraint=eastwest;rotatable=0;whiteSpace=wrap;html=1;" vertex="1" parent="FzBHjBmkNi7TMJPtjKPj-14">
          <mxGeometry y="30" width="140" height="30" as="geometry" />
        </mxCell>
        <mxCell id="FzBHjBmkNi7TMJPtjKPj-17" value="&lt;span style=&quot;font-size: 13px;&quot;&gt;Colaboradores&lt;/span&gt;" style="swimlane;fontStyle=0;childLayout=stackLayout;horizontal=1;startSize=30;horizontalStack=0;resizeParent=1;resizeParentMax=0;resizeLast=0;collapsible=1;marginBottom=0;whiteSpace=wrap;html=1;" vertex="1" parent="1">
          <mxGeometry x="330" y="400" width="140" height="90" as="geometry" />
        </mxCell>
        <mxCell id="FzBHjBmkNi7TMJPtjKPj-18" value="- Nome" style="text;strokeColor=none;fillColor=none;align=left;verticalAlign=middle;spacingLeft=4;spacingRight=4;overflow=hidden;points=[[0,0.5],[1,0.5]];portConstraint=eastwest;rotatable=0;whiteSpace=wrap;html=1;" vertex="1" parent="FzBHjBmkNi7TMJPtjKPj-17">
          <mxGeometry y="30" width="140" height="30" as="geometry" />
        </mxCell>
        <mxCell id="FzBHjBmkNi7TMJPtjKPj-19" value="&lt;font style=&quot;font-size: 13px;&quot;&gt;- Senha&lt;/font&gt;" style="text;strokeColor=none;fillColor=none;align=left;verticalAlign=middle;spacingLeft=4;spacingRight=4;overflow=hidden;points=[[0,0.5],[1,0.5]];portConstraint=eastwest;rotatable=0;whiteSpace=wrap;html=1;" vertex="1" parent="FzBHjBmkNi7TMJPtjKPj-17">
          <mxGeometry y="60" width="140" height="30" as="geometry" />
        </mxCell>
        <mxCell id="FzBHjBmkNi7TMJPtjKPj-20" value="&lt;span style=&quot;font-size: 13px;&quot;&gt;Manutenção&lt;/span&gt;" style="swimlane;fontStyle=0;childLayout=stackLayout;horizontal=1;startSize=30;horizontalStack=0;resizeParent=1;resizeParentMax=0;resizeLast=0;collapsible=1;marginBottom=0;whiteSpace=wrap;html=1;" vertex="1" parent="1">
          <mxGeometry x="660" y="415" width="140" height="60" as="geometry" />
        </mxCell>
        <mxCell id="FzBHjBmkNi7TMJPtjKPj-21" value="- Tipo" style="text;strokeColor=none;fillColor=none;align=left;verticalAlign=middle;spacingLeft=4;spacingRight=4;overflow=hidden;points=[[0,0.5],[1,0.5]];portConstraint=eastwest;rotatable=0;whiteSpace=wrap;html=1;" vertex="1" parent="FzBHjBmkNi7TMJPtjKPj-20">
          <mxGeometry y="30" width="140" height="30" as="geometry" />
        </mxCell>
        <mxCell id="FzBHjBmkNi7TMJPtjKPj-27" style="edgeStyle=orthogonalEdgeStyle;rounded=0;orthogonalLoop=1;jettySize=auto;html=1;entryX=1;entryY=0.5;entryDx=0;entryDy=0;endArrow=none;endFill=0;" edge="1" parent="1" source="FzBHjBmkNi7TMJPtjKPj-24" target="FzBHjBmkNi7TMJPtjKPj-3">
          <mxGeometry relative="1" as="geometry" />
        </mxCell>
        <mxCell id="FzBHjBmkNi7TMJPtjKPj-28" style="edgeStyle=orthogonalEdgeStyle;rounded=0;orthogonalLoop=1;jettySize=auto;html=1;exitX=1;exitY=0.5;exitDx=0;exitDy=0;entryX=-0.009;entryY=0.053;entryDx=0;entryDy=0;entryPerimeter=0;endArrow=none;endFill=0;" edge="1" parent="1" source="FzBHjBmkNi7TMJPtjKPj-24" target="FzBHjBmkNi7TMJPtjKPj-15">
          <mxGeometry relative="1" as="geometry" />
        </mxCell>
        <mxCell id="FzBHjBmkNi7TMJPtjKPj-24" value="Atende" style="rhombus;whiteSpace=wrap;html=1;" vertex="1" parent="1">
          <mxGeometry x="231" y="172.5" width="65" height="65" as="geometry" />
        </mxCell>
        <mxCell id="FzBHjBmkNi7TMJPtjKPj-30" style="edgeStyle=orthogonalEdgeStyle;rounded=0;orthogonalLoop=1;jettySize=auto;html=1;exitX=0.5;exitY=0;exitDx=0;exitDy=0;endArrow=none;endFill=0;" edge="1" parent="1" source="FzBHjBmkNi7TMJPtjKPj-25" target="FzBHjBmkNi7TMJPtjKPj-14">
          <mxGeometry relative="1" as="geometry" />
        </mxCell>
        <mxCell id="FzBHjBmkNi7TMJPtjKPj-31" style="edgeStyle=orthogonalEdgeStyle;rounded=0;orthogonalLoop=1;jettySize=auto;html=1;exitX=0.5;exitY=1;exitDx=0;exitDy=0;entryX=0.5;entryY=0;entryDx=0;entryDy=0;endArrow=none;endFill=0;" edge="1" parent="1" source="FzBHjBmkNi7TMJPtjKPj-25" target="FzBHjBmkNi7TMJPtjKPj-17">
          <mxGeometry relative="1" as="geometry" />
        </mxCell>
        <mxCell id="FzBHjBmkNi7TMJPtjKPj-25" value="Possui" style="rhombus;whiteSpace=wrap;html=1;" vertex="1" parent="1">
          <mxGeometry x="367.5" y="290" width="65" height="65" as="geometry" />
        </mxCell>
        <mxCell id="FzBHjBmkNi7TMJPtjKPj-32" style="edgeStyle=orthogonalEdgeStyle;rounded=0;orthogonalLoop=1;jettySize=auto;html=1;entryX=1;entryY=0.5;entryDx=0;entryDy=0;endArrow=none;endFill=0;" edge="1" parent="1" source="FzBHjBmkNi7TMJPtjKPj-26" target="FzBHjBmkNi7TMJPtjKPj-18">
          <mxGeometry relative="1" as="geometry" />
        </mxCell>
        <mxCell id="FzBHjBmkNi7TMJPtjKPj-35" style="edgeStyle=orthogonalEdgeStyle;rounded=0;orthogonalLoop=1;jettySize=auto;html=1;entryX=0;entryY=0.5;entryDx=0;entryDy=0;endArrow=none;endFill=0;" edge="1" parent="1" source="FzBHjBmkNi7TMJPtjKPj-26" target="FzBHjBmkNi7TMJPtjKPj-20">
          <mxGeometry relative="1" as="geometry" />
        </mxCell>
        <mxCell id="FzBHjBmkNi7TMJPtjKPj-26" value="Efetua" style="rhombus;whiteSpace=wrap;html=1;" vertex="1" parent="1">
          <mxGeometry x="551" y="412.5" width="65" height="65" as="geometry" />
        </mxCell>
        <mxCell id="FzBHjBmkNi7TMJPtjKPj-36" value="&lt;font style=&quot;font-size: 13px;&quot;&gt;1&lt;/font&gt;" style="text;html=1;align=center;verticalAlign=middle;resizable=0;points=[];autosize=1;strokeColor=none;fillColor=none;" vertex="1" parent="1">
          <mxGeometry x="296" y="170" width="30" height="30" as="geometry" />
        </mxCell>
        <mxCell id="FzBHjBmkNi7TMJPtjKPj-37" value="&lt;font style=&quot;font-size: 13px;&quot;&gt;N&lt;/font&gt;" style="text;html=1;align=center;verticalAlign=middle;resizable=0;points=[];autosize=1;strokeColor=none;fillColor=none;" vertex="1" parent="1">
          <mxGeometry x="201" y="170" width="30" height="30" as="geometry" />
        </mxCell>
        <mxCell id="FzBHjBmkNi7TMJPtjKPj-38" value="&lt;font style=&quot;font-size: 13px;&quot;&gt;1&lt;/font&gt;" style="text;html=1;align=center;verticalAlign=middle;resizable=0;points=[];autosize=1;strokeColor=none;fillColor=none;" vertex="1" parent="1">
          <mxGeometry x="399" y="237.5" width="30" height="30" as="geometry" />
        </mxCell>
        <mxCell id="FzBHjBmkNi7TMJPtjKPj-39" value="&lt;font style=&quot;font-size: 13px;&quot;&gt;N&lt;/font&gt;" style="text;html=1;align=center;verticalAlign=middle;resizable=0;points=[];autosize=1;strokeColor=none;fillColor=none;" vertex="1" parent="1">
          <mxGeometry x="399" y="355" width="30" height="30" as="geometry" />
        </mxCell>
        <mxCell id="FzBHjBmkNi7TMJPtjKPj-40" value="&lt;font style=&quot;font-size: 13px;&quot;&gt;1&lt;/font&gt;" style="text;html=1;align=center;verticalAlign=middle;resizable=0;points=[];autosize=1;strokeColor=none;fillColor=none;" vertex="1" parent="1">
          <mxGeometry x="620" y="410" width="30" height="30" as="geometry" />
        </mxCell>
        <mxCell id="FzBHjBmkNi7TMJPtjKPj-41" value="&lt;font style=&quot;font-size: 13px;&quot;&gt;N&lt;/font&gt;" style="text;html=1;align=center;verticalAlign=middle;resizable=0;points=[];autosize=1;strokeColor=none;fillColor=none;" vertex="1" parent="1">
          <mxGeometry x="480" y="410" width="30" height="30" as="geometry" />
        </mxCell>
        <mxCell id="FzBHjBmkNi7TMJPtjKPj-42" value="&lt;font style=&quot;font-size: 13px;&quot;&gt;Relacionamento 1: N&lt;/font&gt;" style="text;html=1;align=center;verticalAlign=middle;resizable=0;points=[];autosize=1;strokeColor=none;fillColor=none;" vertex="1" parent="1">
          <mxGeometry x="120" y="328" width="140" height="30" as="geometry" />
        </mxCell>
      </root>
    </mxGraphModel>
  </diagram>
</mxfile>
